<svg width="26" height="26" viewBox="0 0 26 26" fill="none" xmlns="http://www.w3.org/2000/svg">
<path fill-rule="evenodd" clip-rule="evenodd" d="M0 12.5417C0 5.6151 5.6151 0 12.5417 0C19.4682 0 25.0833 5.6151 25.0833 12.5417C25.0833 19.4682 19.4682 25.0833 12.5417 25.0833C5.6151 25.0833 0 19.4682 0 12.5417ZM12.5417 1.75C6.58159 1.75 1.75 6.58159 1.75 12.5417C1.75 18.5017 6.58159 23.3333 12.5417 23.3333C18.5017 23.3333 23.3333 18.5017 23.3333 12.5417C23.3333 6.58159 18.5017 1.75 12.5417 1.75ZM9.2475 9.91667L10.1872 9.12888C10.5575 8.81841 10.606 8.26652 10.2955 7.89619C9.98506 7.52587 9.43317 7.47735 9.06285 7.78782L7.01269 9.50663C6.61936 9.83634 6.42071 10.3063 6.41678 10.7777C6.4167 10.7823 6.41667 10.787 6.41667 10.7917C6.41667 10.7961 6.4167 10.8005 6.41677 10.805C6.42034 11.2768 6.61897 11.7473 7.01269 12.0772L9.06294 13.7956C9.43331 14.106 9.9852 14.0574 10.2956 13.6871C10.606 13.3167 10.5574 12.7648 10.1871 12.4544L9.24718 11.6667H14.5833C15.7109 11.6667 16.625 12.5808 16.625 13.7083C16.625 14.8359 15.7109 15.75 14.5833 15.75H12.25C11.7668 15.75 11.375 16.1418 11.375 16.625C11.375 17.1082 11.7668 17.5 12.25 17.5H14.5833C16.6774 17.5 18.375 15.8024 18.375 13.7083C18.375 11.6143 16.6774 9.91667 14.5833 9.91667H9.2475Z" fill="#14151B"/>
</svg>
